<?xml version="1.0" encoding="UTF-8" standalone="no"?>
<!-- Created with Inkscape (http://www.inkscape.org/) -->

<svg
   width="401.96585mm"
   height="162.45476mm"
   viewBox="0 0 401.96585 162.45476"
   version="1.1"
   id="svg1"
   sodipodi:docname="MON logo - wit.svg"
   inkscape:version="1.4.2 (f4327f4, 2025-05-13)"
   xmlns:inkscape="http://www.inkscape.org/namespaces/inkscape"
   xmlns:sodipodi="http://sodipodi.sourceforge.net/DTD/sodipodi-0.dtd"
   xmlns="http://www.w3.org/2000/svg"
   xmlns:svg="http://www.w3.org/2000/svg">
  <sodipodi:namedview
     id="namedview1"
     pagecolor="#ffffff"
     bordercolor="#000000"
     borderopacity="0.25"
     inkscape:showpageshadow="2"
     inkscape:pageopacity="0.0"
     inkscape:pagecheckerboard="0"
     inkscape:deskcolor="#d1d1d1"
     inkscape:document-units="mm"
     inkscape:zoom="1.1690048"
     inkscape:cx="760.0482"
     inkscape:cy="306.67111"
     inkscape:window-width="1920"
     inkscape:window-height="1129"
     inkscape:window-x="1912"
     inkscape:window-y="-8"
     inkscape:window-maximized="1"
     inkscape:current-layer="svg1">
    <inkscape:page
       x="0"
       y="-2.3669523e-14"
       width="401.96585"
       height="162.45474"
       id="page2"
       margin="0"
       bleed="0" />
  </sodipodi:namedview>
  <defs
     id="defs1" />
  <text
     xml:space="preserve"
     style="font-weight:800;font-size:188.96px;line-height:0;font-family:DoloresCyr;-inkscape-font-specification:'DoloresCyr Ultra-Bold';text-align:center;letter-spacing:2.39835px;word-spacing:0px;writing-mode:lr-tb;direction:ltr;text-anchor:middle;fill:#ffffff;stroke-width:14.5318"
     x="348.68243"
     y="135.72273"
     id="text2"><tspan
       sodipodi:role="line"
       id="tspan2"
       style="font-style:normal;font-variant:normal;font-weight:normal;font-stretch:normal;font-family:'Century Gothic';-inkscape-font-specification:'Century Gothic';stroke-width:14.5318;fill:#ffffff"
       x="349.88159"
       y="135.72273">N</tspan></text>
  <g
     inkscape:label="Wereldbol"
     inkscape:groupmode="layer"
     id="layer1"
     transform="translate(111.6699,-45.525666)">
    <circle
       cx="109.16733"
       cy="113.38731"
       r="67.728836"
       data-original="#65B1EF"
       class="active-path"
       data-old_color="#69BAFB"
       fill="green"
       style="fill:#ffffff;stroke:#777777;stroke-width:0.264963;fill-opacity:1"
       id="circle1" />
    <path
       d="m 76.252527,170.22086 c -0.0127,0.0254 -0.0297,0.0424 -0.0424,0.0678 0.10175,0.0254 0.19925,0.0593 0.301,0.0805 z m -4.2606,-95.458829 -0.13566,-0.275561 c 1.13192,-0.169577 1.20823,-0.966586 2.06883,-1.259106 0.9793,-0.322195 0.64439,0.02968 1.60673,0 0.78006,-0.03392 1.25487,0.534166 2.14515,0.118704 -0.21621,0.381547 -0.56808,0.64439 -0.91996,0.902995 -0.73341,0.521447 -1.48379,1.055613 -2.35711,1.259105 -0.87332,0.199252 -1.89925,-0.01272 -2.40798,-0.746137 z"
       data-original="#E9EFF4"
       data-old_color="#ffcf3f"
       fill="red"
       style="display:inline;fill:#777777;stroke-width:0.264963"
       id="path1" />
    <path
       d="m 85.541077,135.13125 c -0.017,0.59775 -0.36882,1.1192 -0.67406,1.62369 -1.36085,2.22145 -2.18754,4.79477 -2.36983,7.40201 -0.1823,2.49702 -0.0721,5.57483 -2.24689,6.80426 -1.24215,0.69102 -2.98879,0.56808 -3.81547,1.73392 -0.2586,0.35187 -0.38155,0.79701 -0.50449,1.21247 -0.53417,1.94589 -1.07257,3.89178 -1.60674,5.83767 a 84.354214,84.354214 0 0 1 -2.08155,-0.21197 c 0.81397,0.2586 1.37781,1.36085 0.89028,2.11547 -0.78005,-0.41123 -1.80599,0.0763 -2.23841,0.8606 -0.41122,0.78005 -0.35187,1.72968 -0.12294,2.59028 0.70798,2.54364 2.8828,4.59552 5.4434,5.20599 -0.44514,0.84365 -1.80599,0.47482 -2.63691,-0.089 -5.93094,-4.01049 -10.40776,-10.11948 -12.45115,-16.98309 -0.7207,-2.4207 -1.1828,-4.99402 -2.59452,-7.07558 -1.17856,-1.75935 -2.95911,-3.04813 -4.13767,-4.80749 -1.65337,-2.52669 -1.96285,-5.80375 -3.87906,-8.11423 -1.07257,-1.31846 -2.73018,-2.93791 -1.78055,-4.34964 0.38154,-0.5808 1.19551,-1.13192 0.87332,-1.74663 -0.10599,-0.19926 -0.3222,-0.3222 -0.49178,-0.49178 -0.64439,-0.69102 -0.19925,-1.77631 0.12295,-2.66659 0.53416,-1.54738 0.53416,-3.20075 0.30523,-4.85412 -1.61097,-1.4414 -2.8828,-3.23043 -3.6798,-5.23991 -0.47482,-1.22519 -1.10649,-2.75562 -2.42071,-2.77258 -0.33915,-0.94963 -0.69102,-1.89925 -1.03018,-2.84888 -0.12294,0.33915 -0.45785,0.55112 -0.82668,0.59775 1.01746,-15.520479 7.27483,-29.603803 17.01276,-40.516048 0.21621,-0.09327 0.42818,-0.21621 0.64439,-0.339153 2.31048,-1.348133 4.15038,-3.370332 6.38455,-4.841408 0.45786,-0.305237 0.9793,-0.597757 1.54739,-0.538405 0.55112,0.04663 1.07257,0.610475 0.87331,1.131923 -0.0763,0.21621 -0.2586,0.385786 -0.44513,0.521448 a 47.246383,47.246383 0 0 1 -8.5297,5.782557 c -0.36459,0.182294 -0.75038,0.398504 -0.91571,0.767333 -0.30948,0.627433 0.21197,1.407485 0.87332,1.636413 0.65711,0.228928 1.39476,0.09327 2.06883,-0.05935 -0.56808,0.809728 -0.73766,1.899256 -0.44514,2.848884 0.62743,0.05935 0.82669,-0.797009 1.01322,-1.394766 0.76309,-2.37407 4.54889,-3.340656 4.303,-5.841909 1.02594,0.534166 2.06884,-0.661348 2.69627,-1.640652 0.62743,-0.996261 2.0222,-1.975566 2.78953,-1.102247 0.0424,0.487533 0.10175,0.979304 0.14838,1.471076 1.34813,-0.339153 2.71322,-0.691024 4.06136,-1.030177 -0.76734,0.538405 -1.02594,1.687286 -0.58504,2.513971 0.44514,0.826685 1.54738,1.242147 2.4207,0.902995 -0.0127,0.7207 -0.65711,1.271823 -1.24215,1.700003 -1.48379,1.119205 -3.07781,2.268085 -4.80749,2.819209 l 0.39851,0.826685 c -0.0424,0.01696 -0.089,0.03392 -0.13567,0.03392 -1.10224,0.105986 -2.26808,-0.686784 -3.44664,-0.534165 -0.7207,0.09327 -1.60673,0.09327 -2.0222,0.826685 -0.0593,0.09327 -0.31795,1.377808 -0.13566,1.271823 0.64439,-0.368829 1.28454,-0.737657 1.91622,-1.102247 0.19501,0.521448 0.24164,1.102247 0.13566,1.670328 0.78005,-0.07631 1.59402,0.08903 2.28504,0.50449 -0.7207,1.670328 -2.57332,2.789533 -4.39627,2.649632 -0.017,-0.551123 -0.0466,-1.102247 -0.0636,-1.65337 -1.50075,-0.122943 -2.72594,1.165838 -3.47632,2.454619 -0.76309,1.301499 -1.34389,2.789532 -2.603,3.616218 -0.76309,0.521447 -1.7,0.7207 -2.52668,1.14888 -0.80973,0.445138 -1.56011,1.288781 -1.39053,2.191776 0.0763,0.42818 0.35187,0.826685 0.33915,1.271823 -0.0466,0.826685 -1.00898,1.212472 -1.65337,1.746637 -1.10225,0.919953 -1.37781,2.607238 -2.55636,3.416966 -0.85636,0.597757 -1.99253,0.585039 -2.98879,0.890276 -0.99626,0.305238 -1.99252,1.301499 -1.58978,2.268085 -0.49177,0.169577 -1.08953,-0.199252 -1.13616,-0.7207 -1.75936,3.463599 -2.92095,7.232432 -3.39577,11.094542 0.87332,0.61047 1.75936,-0.78429 1.92893,-1.83991 0.1823,-1.05561 1.10225,-2.43766 1.95861,-1.81023 -0.19925,1.51771 -0.3985,3.01846 -0.59352,4.53617 -0.0466,0.29252 -0.0763,0.59776 0.0636,0.85636 0.16957,0.3222 0.53416,0.45786 0.81396,0.68679 0.78005,0.67407 0.67407,1.86958 0.7207,2.89552 0.0466,1.25486 0.4621,2.48005 1.11921,3.55262 -0.0636,-0.21621 -0.10599,-0.42818 -0.15262,-0.64439 1.19551,0.15262 2.43766,-0.23316 3.34065,-1.03017 0.47482,-0.42818 0.87332,-0.97931 1.47108,-1.19552 0.61471,-0.22893 1.28878,-0.0636 1.91621,0.10599 1.94589,0.53416 4.01473,1.13192 5.31623,2.66235 0.6571,0.78005 1.07257,1.76359 1.85686,2.40374 1.77631,1.50076 4.78205,0.83941 6.40575,2.50974 1.3015,1.34813 1.05985,3.52295 0.70798,5.37557 -0.89028,-0.48753 -2.08155,0.73766 -1.5601,1.61098 0.47481,-0.52145 1.02593,-1.07258 1.71696,-1.07258 0.70374,-0.017 1.31845,0.94963 0.79701,1.39477 1.22519,-1.56434 4.22669,-0.91995 4.7015,1.02594 1.71697,0.12294 3.44664,0.24164 5.16361,0.38155 -0.33068,2.51821 4.94315,2.66658 4.83716,5.19751 z M 75.099407,64.252531 c -0.66134,0.326434 -1.57282,-0.04239 -1.8187,-0.737658 -0.25013,-0.695263 0.22045,-1.555864 0.94115,-1.721201 0.45361,-0.105985 1.08529,-0.05511 1.22519,-0.50025 0.0424,-0.135662 0.017,-0.284041 0.017,-0.423941 -0.017,-0.839404 0.73342,-1.534667 1.54315,-1.746638 0.80973,-0.207731 1.66609,-0.04663 2.48853,0.114464 a 3.0870862,3.0870862 0 0 1 0.23741,1.967087 c -0.56384,0.02544 -1.12768,0.04663 -1.69152,0.07207 0.0509,0.93691 -0.0424,2.115466 -0.91148,2.463098 -0.78005,0.309477 -1.79751,-0.267083 -2.44614,0.258604 m 9.19529,-9.102016 c 1.5389,-0.737657 2.8404,-1.899256 4.35811,-2.679308 2.61148,-1.339654 5.65961,-1.458357 8.59329,-1.551624 L 116.8619,50.042024 c -1.54738,0.847883 -3.09477,1.700004 -4.64639,2.547886 -1.26334,0.695264 -2.7005,1.407485 -4.08679,1.01322 -0.0297,1.114965 0.98354,2.149381 2.10275,2.140902 -2.7429,1.695765 -6.54989,-0.03815 -9.44541,1.386288 -1.212473,0.597757 -2.191783,1.72544 -3.527193,1.937411 -0.77158,0.122943 -1.57282,-0.08479 -2.34016,0.08479 -1.28454,0.279801 -2.09427,1.496512 -3.04389,2.403746 -1.09377,1.047134 -2.70051,1.763595 -4.12919,1.263344 -1.42868,-0.50025 -2.17482,-2.624195 -1.03018,-3.616217 0.56384,-0.487533 1.36933,-0.568081 2.03492,-0.911474 0.66559,-0.339153 1.19127,-1.250626 0.69102,-1.805989 -0.21626,-0.241646 -0.57237,-0.334913 -0.77162,-0.593517 -0.21621,-0.279801 -0.19501,-0.678306 -0.37307,-0.983544 -0.6783,-1.191274 -2.56484,0.411223 -3.84938,-0.06783 m 19.709023,5.68929 c 0.90299,-0.207732 1.68728,-0.741897 2.53093,-1.131923 0.84364,-0.390026 1.84838,-0.618954 2.67507,-0.207731 0.24588,0.614714 -0.4621,1.174317 -1.08529,1.394766 a 7.5906658,7.5906658 0 0 1 -3.7434,0.326435 m 54.21359,6.354877 a 2.1560056,2.1560056 0 0 1 -0.76734,-0.04663 c -1.14888,-0.245886 -2.0222,-1.131923 -3.00574,-1.776314 -2.26808,-1.500751 -5.36285,-1.695764 -7.81323,-0.470574 0.5808,-0.843643 0.87332,-1.886538 0.80972,-2.912476 l -0.35187,0.122943 c -4.01472,-2.327437 -8.72047,-4.743901 -13.09978,-3.179558 -1.01322,0.368828 -1.92893,0.919952 -2.95487,1.271823 -1.08953,0.381547 -2.29776,0.538405 -3.23043,1.212472 -0.94963,0.674066 -1.45412,2.162099 -0.64015,2.971827 0.69102,0.691024 1.79327,0.50449 2.75986,0.597757 0.94963,0.09327 2.03915,1.038656 1.51771,1.852623 -4.19702,1.962847 -8.40676,3.942652 -12.60377,5.922457 1.92893,0.627433 3.20499,2.814969 2.78953,4.807492 -1.41172,0.245886 -2.77258,-0.610475 -4.19702,-0.703742 -2.06883,-0.105985 -4.0444,1.716962 -4.08679,3.785794 -0.0593,2.068833 1.8399,3.980808 3.90874,3.951132 1.54738,-0.01696 3.06509,-0.949628 4.56584,-0.555363 0.0593,-1.411724 1.02594,-2.607238 2.01796,-3.616218 1.92893,-1.933171 4.68455,-3.679809 7.26211,-2.730181 0.84365,0.305238 1.56435,0.873319 2.26809,1.437161 1.54738,1.225189 3.09477,2.463098 4.64639,3.705245 0.49178,-0.50449 0.97931,-1.013219 1.47108,-1.500752 0.84364,0.890277 1.68728,1.776314 2.54365,2.679308 0.42818,-0.292519 0.87331,-0.568081 1.3015,-0.8606 0.30523,0.797009 0.62743,1.577061 0.93691,2.37407 0.12294,-0.873319 0.22892,-1.72968 0.33491,-2.59028 1.01322,0.02968 2.08579,0.05935 3.0015,-0.398505 0.91995,-0.445138 1.59402,-1.547385 1.20823,-2.497013 -0.19925,-0.50449 -0.67406,-0.902995 -0.76733,-1.4414 -0.19925,-1.072571 1.33118,-1.805989 2.32744,-1.318457 0.9793,0.474814 1.47107,1.594019 1.88654,2.619956 0.22892,-1.042895 0.44089,-2.068832 0.67406,-3.111727 a 24.612697,24.612697 0 0 0 4.05712,6.944155 c -3.14141,-0.597757 -6.45239,-0.254364 -9.3903,0.953868 0.93691,1.318457 2.54365,2.098508 4.15463,2.034917 0.7207,-0.01696 1.5177,-0.182295 2.06883,0.275562 0.41546,0.351871 0.52145,0.919952 0.59775,1.4414 0.24589,1.471075 0.49178,2.925193 0.7207,4.379311 -1.6576,-1.360851 -4.04439,-1.208232 -6.20649,-1.250626 -2.1621,-0.05935 -4.68879,-0.657109 -5.4858,-2.66235 -0.85636,0.966586 -1.23791,2.344394 -0.99202,3.633175 -2.23841,-0.534166 -4.81174,-1.390527 -5.45613,-3.59926 -1.74663,0.644391 -3.92145,-0.470575 -4.39627,-2.263845 -0.16957,-0.627433 -0.21621,-1.394767 -0.76733,-1.72968 -0.33491,-0.199253 -0.76733,-0.169577 -1.16584,-0.122943 -3.3237,0.385786 -6.63468,0.754615 -9.94142,1.140401 -1.80599,0.21621 -3.67557,0.43242 -5.26958,1.318457 -1.59402,0.873319 -2.86161,2.590281 -2.67931,4.400509 -3.04814,1.810229 -5.63418,4.430185 -7.38082,7.512237 -0.55112,0.949628 -1.02593,2.039158 -0.80972,3.111728 0.15261,0.82668 0.70374,1.53042 0.87331,2.34439 0.29252,1.39477 -0.50449,2.7429 -0.8394,4.12071 -0.94963,3.92145 2.02644,7.61398 4.7863,10.58157 1.3015,1.37781 2.80649,2.87856 4.70574,2.95487 1.17856,0.0466 2.29776,-0.47481 3.40001,-0.90723 3.15412,-1.24215 6.58805,-1.81023 9.9711,-1.67457 -0.76734,0.59775 0.0297,1.89925 0.98354,2.09851 0.94963,0.19925 1.97556,-0.11023 2.89552,0.21197 2.09851,0.75037 1.81023,3.82819 0.8606,5.83767 0.47481,-0.0933 0.96658,-0.18654 1.45412,-0.27557 a 251.00149,251.00149 0 0 1 -0.78006,2.00525 c 2.87856,0.36459 3.96809,4.15038 3.29827,6.98231 -0.65711,2.83616 -2.34016,5.43916 -2.38679,8.35164 -0.0127,1.59401 0.47481,3.1414 0.96658,4.65487 1.22943,3.84515 2.45462,7.69029 3.68405,11.54816 3.43392,0.41122 5.40525,-3.95538 8.59329,-5.32047 1.19551,-0.52144 2.603,-0.62743 3.53991,-1.5177 0.90299,-0.85637 0.61047,-2.86585 -0.55113,-2.86585 1.57706,-0.16957 2.9252,-1.61097 2.97183,-3.20499 0.017,-0.44514 -0.0466,-0.89028 0.0127,-1.33118 0.10598,-0.62743 0.50449,-1.17855 0.88603,-1.71696 2.43343,-3.49327 4.01049,-7.49528 5.58755,-11.44641 0.41122,-1.05985 0.82668,-2.09851 1.23791,-3.15836 1.5601,-3.93841 3.10749,-7.85987 4.66759,-11.79828 0.61047,-1.54739 1.22519,-3.07781 1.83566,-4.62944 -0.84364,1.39477 -3.04813,1.21247 -4.30724,0.16958 -1.27182,-1.03866 -1.93317,-2.61996 -2.92943,-3.92146 -0.84364,-1.1192 -1.97981,-2.11122 -2.37831,-3.47631 -0.22893,-0.78006 -0.18653,-1.6237 -0.3222,-2.43767 -0.30947,-1.76359 -1.47107,-3.23043 -2.26808,-4.824443 -0.79701,-1.594019 -1.21247,-3.658612 -0.0933,-5.057618 3.22195,5.621461 6.15139,11.408251 8.80102,17.339191 0.29252,-0.91995 0.96659,-1.71696 1.82295,-2.1621 0.62743,-0.33915 1.33117,-0.47481 1.99252,-0.75038 1.74664,-0.76733 2.95487,-2.61995 2.95487,-4.51921 -0.017,-1.89926 -1.22519,-3.75188 -2.98879,-4.50225 -0.87331,-0.36883 -1.86958,-0.487534 -2.69626,-0.996263 -0.82669,-0.487532 -1.42444,-1.606737 -0.903,-2.420704 0.48754,-0.767333 1.67033,-0.750375 2.48006,-0.322195 0.81397,0.445138 1.41172,1.195514 2.17482,1.700004 0.55112,0.368829 1.19551,0.610475 1.79327,0.949628 3.23467,1.85262 4.03168,6.0666 4.70998,9.74216 0.36883,1.97557 0.7843,3.93842 1.27607,5.86735 0.017,-0.41546 0.0127,-0.84364 0.0127,-1.25487 -0.017,-17.813999 -6.90601,-34.004311 -18.1574,-46.086633 z m 6.20226,22.256909 c -0.44514,-0.02968 -0.85637,-0.322195 -1.21248,-0.597757 -0.5808,-0.457856 -1.16583,-0.996262 -1.33541,-1.716961 -0.19925,-0.856362 0.21197,-1.839905 -0.24589,-2.602999 -0.21621,-0.368829 -0.59775,-0.597757 -0.91995,-0.856361 -0.84364,-0.674066 -1.45836,-1.640652 -1.68728,-2.679308 -0.19926,-0.919952 0.089,-2.145142 1.02593,-2.297761 0.44514,-0.07631 0.93267,0.169577 1.13193,0.5808 l -0.62744,0.339152 c 1.05562,0.122943 1.54739,1.716962 0.73766,2.403747 -0.10598,0.105985 -0.24588,0.199252 -0.24588,0.351871 0,0.09327 0.0593,0.182294 0.1399,0.245886 0.6571,0.7207 1.64065,0.979304 2.49701,1.43716 0.85636,0.445138 1.7,1.271823 1.56434,2.221451 -0.27556,0.105986 -0.53416,0.199253 -0.80973,0.305238 -0.29252,0.292519 -0.0593,0.813967 0.24589,1.102247 0.30524,0.28828 0.70374,0.580799 0.7207,1.00898 0,0.462096 -0.52145,0.784291 -0.9793,0.754615 z m 0.44089,47.133767 -1.10648,0.7843 c 0.38578,1.35661 -0.38579,2.94639 -1.69577,3.47631 -0.69102,0.2798 -1.61097,0.40275 -1.84414,1.11073 -0.19501,0.60199 0.27132,1.21247 0.33491,1.8399 0.10175,1.0429 -0.87332,1.82295 -1.57706,2.59876 -0.70374,0.77581 -1.07681,2.23417 -0.1399,2.70051 0.21621,0.11022 0.46634,0.13142 0.70798,0.15262 1.01746,0.089 2.13243,0.1187 2.96335,-0.47482 2.38255,-1.7 0.11871,-6.31248 2.47158,-8.05912 0.33491,-0.24589 0.75461,-0.42394 0.93691,-0.79701 0.55536,-1.09801 -1.49227,-2.18753 -1.05138,-3.33218 z"
       data-original="#E9EFF4"
       data-old_color="#ffcf3f"
       fill="red"
       style="display:inline;fill:#777777;stroke-width:0.264963"
       id="path2" />
  </g>
  <text
     xml:space="preserve"
     style="font-weight:800;font-size:188.96px;line-height:0;font-family:DoloresCyr;-inkscape-font-specification:'DoloresCyr Ultra-Bold';text-align:center;letter-spacing:2.39835px;word-spacing:0px;writing-mode:lr-tb;direction:ltr;text-anchor:middle;fill:#ffffff;stroke-width:14.5318"
     x="76.488205"
     y="135.72273"
     id="text1"><tspan
       sodipodi:role="line"
       id="tspan1"
       style="font-style:normal;font-variant:normal;font-weight:normal;font-stretch:normal;font-family:'Century Gothic';-inkscape-font-specification:'Century Gothic';stroke-width:14.5318;fill:#ffffff"
       x="77.687378"
       y="135.72273">M</tspan></text>
  <text
     xml:space="preserve"
     style="font-style:normal;font-variant:normal;font-weight:normal;font-stretch:normal;font-size:21.3283px;line-height:0;font-family:'Century Gothic';-inkscape-font-specification:'Century Gothic';text-align:center;letter-spacing:0.270706px;word-spacing:0px;writing-mode:lr-tb;direction:ltr;text-anchor:middle;fill:#ffffff;stroke-width:1.64024"
     x="201.23796"
     y="158.01828"
     id="text3"><tspan
       sodipodi:role="line"
       id="tspan3"
       style="stroke-width:1.64024;fill:#ffffff"
       x="201.37332"
       y="158.01828">Maatschappelijke Omroep Nederland</tspan></text>
</svg>
